<svg width="300" height="60" viewBox="0 0 300 60" fill="none" xmlns="http://www.w3.org/2000/svg">
<path d="M0.5 8C0.5 3.85786 3.85787 0.5 8 0.5H139.372C140.477 0.5 141.372 1.39543 141.372 2.5C141.372 4.15685 142.715 5.5 144.372 5.5L211.786 5.5C213.443 5.5 214.786 4.15686 214.786 2.5C214.786 1.39543 215.681 0.5 216.786 0.5H279.336C281.11 0.5 282.826 1.12842 284.18 2.2737L296.844 12.985C298.528 14.41 299.5 16.5047 299.5 18.7113V52C299.5 56.1421 296.142 59.5 292 59.5H20.5684C18.7871 59.5 17.064 58.866 15.7075 57.7115L3.13911 47.015C1.46475 45.59 0.5 43.5021 0.5 41.3035V30V8Z" fill="#3970F6" stroke="#3970F6"/>
</svg>
