<svg width="911" height="111" viewBox="0 0 911 111" fill="none" xmlns="http://www.w3.org/2000/svg">
<path d="M-47 8C-47 12.4183 -43.4183 16 -39 16C-34.5817 16 -31 12.4183 -31 8C-31 3.58172 -34.5817 0 -39 0C-43.4183 0 -47 3.58172 -47 8ZM895 103C895 107.418 898.582 111 903 111C907.418 111 911 107.418 911 103C911 98.5817 907.418 95 903 95C898.582 95 895 98.5817 895 103ZM553.865 96.951L552.767 97.9735L553.865 96.951ZM-39 9.5H462.733V6.5H-39V9.5ZM475.538 15.0714L552.767 97.9735L554.962 95.9286L477.733 13.0265L475.538 15.0714ZM567.767 104.5H903V101.5H567.767V104.5ZM552.767 97.9735C556.645 102.136 562.078 104.5 567.767 104.5V101.5C562.911 101.5 558.273 99.482 554.962 95.9286L552.767 97.9735ZM462.733 9.5C467.589 9.5 472.227 11.518 475.538 15.0714L477.733 13.0265C473.855 8.864 468.422 6.5 462.733 6.5V9.5Z" fill="#FBFBFB"/>
</svg>
