<svg width="203" height="48" viewBox="0 0 203 48" fill="none" xmlns="http://www.w3.org/2000/svg">
<path d="M0.5 8C0.5 3.85786 3.85786 0.5 8 0.5H94C94.8284 0.5 95.5 1.17157 95.5 2C95.5 3.38071 96.6193 4.5 98 4.5H143C144.381 4.5 145.5 3.38071 145.5 2C145.5 1.17157 146.172 0.5 147 0.5H187.686C189.675 0.5 191.583 1.29018 192.99 2.6967L200.303 10.0104C201.71 11.4169 202.5 13.3246 202.5 15.3137V40C202.5 44.1421 199.142 47.5 195 47.5H15.2544C13.2573 47.5 11.3426 46.7035 9.93479 45.2869L2.68038 37.9877C1.28384 36.5825 0.5 34.6818 0.5 32.7007V24V8Z" stroke="#3970F6"/>
</svg>
